<?xml version="1.0" encoding="UTF-8"?>
<svg id="_レイヤー_2" data-name="レイヤー 2" xmlns="http://www.w3.org/2000/svg" viewBox="0 0 308.06 308.74">
  <defs>
    <style>
      .cls-1 {
        fill: #ebbf02;
      }

      .cls-1, .cls-2, .cls-3 {
        stroke: #ccc;
        stroke-miterlimit: 10;
        stroke-width: 2px;
      }

      .cls-2 {
        fill: #fdcd02;
      }

      .cls-4 {
        opacity: .2;
      }
    </style>
  </defs>
  <g id="_瀧_1" data-name="瀧 1">
    <g>
      <g class="cls-4">
        <path class="cls-3" d="m159.15,81.23c4.53,0,8.2-3.67,8.2-8.2V20.13c0-4.53-3.67-8.2-8.2-8.2s-8.2,3.67-8.2,8.2v52.9c0,4.53,3.67,8.2,8.2,8.2Z"/>
        <path class="cls-3" d="m91.97,104.25c1.6,1.6,3.7,2.4,5.8,2.4s4.2-.8,5.8-2.4c3.2-3.2,3.2-8.39,0-11.59l-37.41-37.41c-3.2-3.2-8.39-3.2-11.59,0-3.2,3.2-3.2,8.39,0,11.59l37.41,37.4Z"/>
        <path class="cls-3" d="m80.54,159.84c0-4.53-3.67-8.2-8.2-8.2H19.45c-4.53,0-8.2,3.67-8.2,8.2s3.67,8.2,8.2,8.2h52.9c4.53,0,8.2-3.67,8.2-8.2Z"/>
        <path class="cls-3" d="m91.97,215.42l-37.41,37.41c-3.2,3.2-3.2,8.39,0,11.59,1.6,1.6,3.7,2.4,5.8,2.4s4.2-.8,5.8-2.4l37.41-37.4c3.2-3.2,3.2-8.39,0-11.59-3.2-3.2-8.39-3.2-11.59,0Z"/>
        <path class="cls-3" d="m159.15,91.56h0c-37.71,0-68.27,30.57-68.27,68.27s30.57,68.27,68.27,68.27h0c37.71,0,68.27-30.57,68.27-68.27s-30.57-68.27-68.27-68.27Z"/>
        <path class="cls-3" d="m159.15,238.45c-4.53,0-8.2,3.67-8.2,8.2v52.9c0,4.53,3.67,8.2,8.2,8.2s8.2-3.67,8.2-8.2v-52.9c0-4.53-3.67-8.2-8.2-8.2Z"/>
        <path class="cls-3" d="m226.33,215.42c-3.2-3.2-8.39-3.2-11.59,0-3.2,3.2-3.2,8.39,0,11.6l37.4,37.4c1.6,1.6,3.7,2.4,5.8,2.4s4.2-.8,5.8-2.4c3.2-3.2,3.2-8.39,0-11.59l-37.41-37.41Z"/>
        <path class="cls-3" d="m298.86,151.64h-52.9c-4.53,0-8.2,3.67-8.2,8.2s3.67,8.2,8.2,8.2h52.9c4.53,0,8.2-3.67,8.2-8.2s-3.67-8.2-8.2-8.2Z"/>
        <path class="cls-3" d="m220.54,106.65c2.1,0,4.2-.8,5.8-2.4l37.41-37.4c3.2-3.2,3.2-8.39,0-11.6-3.2-3.2-8.39-3.2-11.6,0l-37.4,37.41c-3.2,3.2-3.2,8.39,0,11.59,1.6,1.6,3.7,2.4,5.8,2.4Z"/>
      </g>
      <g>
        <path class="cls-2" d="m80.63,148.91c0,37.71,30.57,68.27,68.27,68.27V80.63c-37.71,0-68.27,30.57-68.27,68.27Z"/>
        <path class="cls-2" d="m140.71,9.2v52.9c0,4.53,3.67,8.2,8.2,8.2V1c-4.53,0-8.2,3.67-8.2,8.2Z"/>
        <path class="cls-2" d="m140.71,235.71v52.9c0,4.53,3.67,8.2,8.2,8.2v-69.3c-4.53,0-8.2,3.67-8.2,8.2Z"/>
        <path class="cls-2" d="m81.73,93.32c1.6,1.6,3.7,2.4,5.8,2.4s4.2-.8,5.8-2.4c3.2-3.2,3.2-8.39,0-11.59l-37.41-37.41c-3.2-3.2-8.39-3.2-11.59,0-3.2,3.2-3.2,8.39,0,11.59l37.41,37.4Z"/>
        <path class="cls-2" d="m70.3,148.91c0-4.53-3.67-8.2-8.2-8.2H9.2c-4.53,0-8.2,3.67-8.2,8.2s3.67,8.2,8.2,8.2h52.9c4.53,0,8.2-3.67,8.2-8.2Z"/>
        <path class="cls-2" d="m81.73,204.49l-37.41,37.41c-3.2,3.2-3.2,8.39,0,11.59,1.6,1.6,3.7,2.4,5.8,2.4s4.2-.8,5.8-2.4l37.41-37.41c3.2-3.2,3.2-8.39,0-11.59-3.2-3.2-8.39-3.2-11.59,0Z"/>
        <g>
          <path class="cls-1" d="m217.18,148.91c0-37.71-30.57-68.27-68.27-68.27h0v136.54h0c37.71,0,68.27-30.57,68.27-68.27Z"/>
          <path class="cls-1" d="m157.1,62.1V9.2c0-4.53-3.67-8.2-8.2-8.2v69.3c4.53,0,8.2-3.67,8.2-8.2Z"/>
          <path class="cls-1" d="m157.1,288.61v-52.9c0-4.53-3.67-8.2-8.2-8.2v69.3c4.53,0,8.2-3.67,8.2-8.2Z"/>
          <path class="cls-1" d="m216.09,204.49c-3.2-3.2-8.39-3.2-11.6,0-3.2,3.2-3.2,8.39,0,11.59l37.41,37.41c1.6,1.6,3.7,2.4,5.8,2.4s4.2-.8,5.8-2.4c3.2-3.2,3.2-8.39,0-11.59l-37.4-37.41Z"/>
          <path class="cls-1" d="m288.61,140.71h-52.9c-4.53,0-8.2,3.67-8.2,8.2s3.67,8.2,8.2,8.2h52.9c4.53,0,8.2-3.67,8.2-8.2s-3.67-8.2-8.2-8.2Z"/>
          <path class="cls-1" d="m210.29,95.72c2.1,0,4.2-.8,5.8-2.4l37.4-37.4c3.2-3.2,3.2-8.39,0-11.6-3.2-3.2-8.39-3.2-11.59,0l-37.41,37.41c-3.2,3.2-3.2,8.39,0,11.59,1.6,1.6,3.7,2.4,5.8,2.4Z"/>
        </g>
      </g>
    </g>
  </g>
</svg>