<?xml version="1.0" encoding="UTF-8"?>
<svg id="_レイヤー_2" data-name="レイヤー 2" xmlns="http://www.w3.org/2000/svg" viewBox="0 0 212.19 250.87">
  <defs>
    <style>
      .cls-1 {
        fill: #fdcd02;
      }

      .cls-1, .cls-2 {
        stroke: #ccc;
        stroke-miterlimit: 10;
        stroke-width: 2px;
      }

      .cls-3 {
        opacity: .3;
      }
    </style>
  </defs>
  <g id="_瀧_1" data-name="瀧 1">
    <g>
      <g class="cls-3">
        <path class="cls-2" d="m180.38,216.65c-61.69,0-111.7-50.01-111.7-111.7,0-28.73,10.85-54.92,28.67-74.71C49.63,42.94,14.47,86.45,14.47,138.17c0,61.69,50.01,111.7,111.7,111.7,32.96,0,62.58-14.28,83.03-36.99-9.19,2.45-18.85,3.76-28.82,3.76Z"/>
        <path class="cls-2" d="m146.69,99.15h0c0-23.27-18.86-42.13-42.13-42.13h0c23.27,0,42.13-18.86,42.13-42.13h0c0,23.27,18.86,42.13,42.13,42.13h0,0c-23.27,0-42.13,18.86-42.13,42.13h0Z"/>
        <path class="cls-2" d="m175.06,175.64h0c0-15.67-12.7-28.37-28.37-28.37h0c15.67,0,28.37-12.7,28.37-28.37h0c0,15.67,12.7,28.37,28.37,28.37h0c-15.67,0-28.37,12.7-28.37,28.37h0Z"/>
      </g>
      <g>
        <path class="cls-1" d="m166.91,201.76c-61.69,0-111.7-50.01-111.7-111.7,0-28.73,10.85-54.92,28.67-74.71C36.16,28.06,1,71.56,1,123.29c0,61.69,50.01,111.7,111.7,111.7,32.96,0,62.58-14.28,83.03-36.99-9.19,2.45-18.85,3.76-28.82,3.76Z"/>
        <path class="cls-1" d="m133.22,84.26h0c0-23.27-18.86-42.13-42.13-42.13h0C114.36,42.13,133.22,23.27,133.22,0h0S133.22,0,133.22,0c0,23.27,18.86,42.13,42.13,42.13h0,0c-23.27,0-42.13,18.86-42.13,42.13h0Z"/>
        <path class="cls-1" d="m161.59,160.75h0c0-15.67-12.7-28.37-28.37-28.37h0,0c15.67,0,28.37-12.7,28.37-28.37h0s0,0,0,0c0,15.67,12.7,28.37,28.37,28.37h0c-15.67,0-28.37,12.7-28.37,28.37h0Z"/>
      </g>
    </g>
  </g>
</svg>