<?xml version="1.0" encoding="UTF-8"?>
<svg id="_レイヤー_2" data-name="レイヤー 2" xmlns="http://www.w3.org/2000/svg" viewBox="0 0 319.28 243.65">
  <defs>
    <style>
      .cls-1 {
        fill: #ebebeb;
      }

      .cls-1, .cls-2, .cls-3, .cls-4, .cls-5 {
        stroke: #ccc;
        stroke-miterlimit: 10;
        stroke-width: 2px;
      }

      .cls-2 {
        fill: #fff;
      }

      .cls-3 {
        fill: #ebbf02;
      }

      .cls-4 {
        fill: #fdcd02;
      }

      .cls-6 {
        opacity: .2;
      }
    </style>
  </defs>
  <g id="_瀧_1" data-name="瀧 1">
    <g>
      <g class="cls-6">
        <path class="cls-5" d="m272.2,150.1c-2.19-40.58-35.79-72.81-76.91-72.81-10.26,0-20.05,2.03-29,5.68-4.52,1.84-8.83,4.1-12.87,6.72-8.49-11.73-22.29-19.37-37.88-19.37h0c-25.81,0-46.74,20.93-46.74,46.74,0,2.83.26,5.59.75,8.28-7.19,9.56-11.46,21.44-11.46,34.33,0,2.21.14,4.38.39,6.53l-.19.19c-1.85-.27-3.74-.42-5.66-.42-21.18,0-38.35,17.17-38.35,38.35s17.17,38.35,38.35,38.35h219.38c25.56,0,46.28-20.72,46.28-46.28s-20.61-46.16-46.07-46.27Z"/>
        <path class="cls-5" d="m115.54,63.24c3.1,0,5.61-2.51,5.61-5.61V21.41c0-3.1-2.51-5.61-5.61-5.61s-5.61,2.51-5.61,5.61v36.22c0,3.1,2.51,5.61,5.61,5.61Z"/>
        <path class="cls-5" d="m69.55,79.01c1.1,1.1,2.53,1.64,3.97,1.64s2.87-.55,3.97-1.64c2.19-2.19,2.19-5.75,0-7.94l-25.61-25.61c-2.19-2.19-5.75-2.19-7.94,0-2.19,2.19-2.19,5.75,0,7.94l25.61,25.61Z"/>
        <path class="cls-5" d="m19.89,122.68h36.22c3.1,0,5.61-2.51,5.61-5.61s-2.51-5.61-5.61-5.61H19.89c-3.1,0-5.61,2.51-5.61,5.61s2.51,5.61,5.61,5.61Z"/>
        <path class="cls-5" d="m157.56,80.65c1.44,0,2.87-.55,3.97-1.64l25.61-25.61c2.19-2.19,2.19-5.75,0-7.94s-5.75-2.19-7.94,0l-25.61,25.61c-2.19,2.19-2.19,5.75,0,7.94,1.1,1.1,2.53,1.64,3.97,1.64Z"/>
      </g>
      <g>
        <path class="cls-2" d="m121.94,91.32c-6.22-2.32-12.96-3.6-19.99-3.6-31.56,0-57.15,25.59-57.15,57.15,0,2.28.15,4.53.41,6.74-1.91-.29-3.87-.45-5.87-.45-21.18,0-38.35,17.17-38.35,38.35s17.17,38.35,38.35,38.35h114.42l-.76-159.68c-12.24,4.98-22.92,13.01-31.07,23.16Z"/>
        <path class="cls-1" d="m258.93,135.3c-2.19-40.58-35.79-72.81-76.91-72.81-10.26,0-20.05,2.03-29,5.68l.76,159.68h104.95c25.56,0,46.28-20.72,46.28-46.28s-20.61-46.16-46.07-46.27Z"/>
        <g>
          <path class="cls-4" d="m55.52,102.26c0,25.81,20.93,46.74,46.74,46.74V55.52c-25.81,0-46.74,20.93-46.74,46.74Z"/>
          <path class="cls-4" d="m96.65,6.61v36.22c0,3.1,2.51,5.61,5.61,5.61V1c-3.1,0-5.61,2.51-5.61,5.61Z"/>
          <path class="cls-4" d="m96.65,161.69v36.22c0,3.1,2.51,5.61,5.61,5.61v-47.44c-3.1,0-5.61,2.51-5.61,5.61Z"/>
          <path class="cls-4" d="m56.27,64.21c1.1,1.1,2.53,1.64,3.97,1.64s2.87-.55,3.97-1.64c2.19-2.19,2.19-5.75,0-7.94l-25.61-25.61c-2.19-2.19-5.75-2.19-7.94,0-2.19,2.19-2.19,5.75,0,7.94l25.61,25.61Z"/>
          <path class="cls-4" d="m48.44,102.26c0-3.1-2.51-5.61-5.61-5.61H6.61c-3.1,0-5.61,2.51-5.61,5.61s2.51,5.61,5.61,5.61h36.22c3.1,0,5.61-2.51,5.61-5.61Z"/>
          <path class="cls-4" d="m56.27,140.32l-25.61,25.61c-2.19,2.19-2.19,5.75,0,7.94,1.1,1.1,2.53,1.64,3.97,1.64s2.87-.55,3.97-1.64l25.61-25.61c2.19-2.19,2.19-5.75,0-7.94-2.19-2.19-5.75-2.19-7.94,0Z"/>
          <g>
            <path class="cls-3" d="m149,102.26c0-25.81-20.93-46.74-46.74-46.74h0v93.48h0c25.81,0,46.74-20.93,46.74-46.74Z"/>
            <path class="cls-3" d="m107.88,42.83V6.61c0-3.1-2.51-5.61-5.61-5.61v47.44c3.1,0,5.61-2.51,5.61-5.61Z"/>
            <path class="cls-3" d="m107.88,197.91v-36.22c0-3.1-2.51-5.61-5.61-5.61v47.44c3.1,0,5.61-2.51,5.61-5.61Z"/>
            <path class="cls-3" d="m148.26,140.32c-2.19-2.19-5.75-2.19-7.94,0-2.19,2.19-2.19,5.75,0,7.94l25.61,25.61c1.1,1.1,2.53,1.64,3.97,1.64s2.87-.55,3.97-1.64c2.19-2.19,2.19-5.75,0-7.94l-25.61-25.61Z"/>
            <path class="cls-3" d="m197.91,96.65h-36.22c-3.1,0-5.61,2.51-5.61,5.61s2.51,5.61,5.61,5.61h36.22c3.1,0,5.61-2.51,5.61-5.61s-2.51-5.61-5.61-5.61Z"/>
            <path class="cls-3" d="m144.29,65.85c1.44,0,2.87-.55,3.97-1.64l25.61-25.61c2.19-2.19,2.19-5.75,0-7.94-2.19-2.19-5.75-2.19-7.94,0l-25.61,25.61c-2.19,2.19-2.19,5.75,0,7.94,1.1,1.1,2.53,1.64,3.97,1.64Z"/>
          </g>
        </g>
      </g>
    </g>
  </g>
</svg>