<?xml version="1.0" encoding="UTF-8"?>
<svg id="_レイヤー_2" data-name="レイヤー 2" xmlns="http://www.w3.org/2000/svg" viewBox="0 0 349.25 228.02">
  <defs>
    <style>
      .cls-1 {
        opacity: .3;
      }

      .cls-1, .cls-2, .cls-3, .cls-4 {
        stroke: #ccc;
        stroke-miterlimit: 10;
        stroke-width: 2px;
      }

      .cls-2 {
        fill: #ebebeb;
      }

      .cls-3 {
        fill: #fff;
      }

      .cls-4 {
        fill: #fdcd02;
      }
    </style>
  </defs>
  <g id="_瀧_1" data-name="瀧 1">
    <g>
      <path class="cls-1" d="m346.26,136.93c-6.03,1.61-12.36,2.47-18.89,2.47-40.44,0-73.23-32.79-73.23-73.23,0-18.83,7.11-36.01,18.8-48.98-26.92,7.17-47.72,29.29-53.01,56.92-9.41-4.31-19.88-6.72-30.9-6.72-9.91,0-19.36,1.96-28.01,5.48-11.81,4.81-22.11,12.56-29.98,22.35-6.01-2.24-12.51-3.48-19.3-3.48-30.47,0-55.17,24.7-55.17,55.17,0,2.2.14,4.37.39,6.51-1.85-.28-3.74-.43-5.67-.43-20.45,0-37.02,16.57-37.02,37.02s16.57,37.02,37.02,37.02h211.79c24.67,0,44.68-20,44.68-44.68,0-7.96-2.09-15.43-5.74-21.9,17.48-2.43,33-11.02,44.26-23.52Z"/>
      <g>
        <path class="cls-4" d="m314.1,124.04c-40.44,0-73.23-32.79-73.23-73.23,0-18.83,7.11-36.01,18.8-48.98-31.29,8.33-54.34,36.85-54.34,70.76,0,40.44,32.79,73.23,73.23,73.23,21.61,0,41.03-9.36,54.43-24.25-6.03,1.61-12.36,2.47-18.89,2.47Z"/>
        <path class="cls-3" d="m117.76,79.87c-6.01-2.24-12.51-3.48-19.3-3.48-30.47,0-55.17,24.7-55.17,55.17,0,2.2.14,4.37.39,6.51-1.85-.28-3.74-.43-5.67-.43-20.45,0-37.02,16.57-37.02,37.02s16.57,37.02,37.02,37.02h109.72V57.52c-11.81,4.81-22.11,12.56-29.98,22.35Z"/>
        <path class="cls-2" d="m250,122.33c-2.12-39.18-34.55-70.29-74.25-70.29-9.91,0-19.36,1.96-28.01,5.48v154.15h102.07c24.67,0,44.68-20,44.68-44.68s-19.9-44.56-44.48-44.67Z"/>
      </g>
    </g>
  </g>
</svg>