<?xml version="1.0" encoding="UTF-8"?>
<svg id="_レイヤー_2" data-name="レイヤー 2" xmlns="http://www.w3.org/2000/svg" viewBox="0 0 348.84 199.73">
  <defs>
    <style>
      .cls-1 {
        fill: #ebebeb;
      }

      .cls-1, .cls-2, .cls-3 {
        stroke: #ccc;
        stroke-miterlimit: 10;
        stroke-width: 2px;
      }

      .cls-2 {
        fill: #fff;
      }

      .cls-3 {
        opacity: .2;
      }
    </style>
  </defs>
  <g id="_瀧_1" data-name="瀧 1">
    <g>
      <path class="cls-3" d="m296.89,96.39c-2.42-44.87-39.57-80.51-85.05-80.51-11.35,0-22.18,2.23-32.08,6.26-13.53,5.51-25.33,14.4-34.34,25.62-6.88-2.57-14.33-3.98-22.1-3.98-34.9,0-63.19,28.29-63.19,63.19,0,2.52.16,5.01.45,7.45-2.12-.32-4.28-.49-6.49-.49-23.42,0-42.4,18.98-42.4,42.4s18.98,42.4,42.4,42.4h242.57c28.26,0,51.17-22.91,51.17-51.17s-22.79-51.04-50.95-51.16Z"/>
      <g>
        <path class="cls-1" d="m286.2,81.51C283.77,36.64,246.63,1,201.15,1c-11.35,0-22.18,2.23-32.08,6.26v176.58h116.9c28.26,0,51.17-22.91,51.17-51.17s-22.79-51.04-50.95-51.16Z"/>
        <path class="cls-2" d="m134.73,32.88c-6.88-2.57-14.33-3.98-22.1-3.98-34.9,0-63.19,28.29-63.19,63.19,0,2.52.16,5.01.45,7.45-2.12-.32-4.28-.49-6.49-.49-23.42,0-42.4,18.98-42.4,42.4s18.98,42.4,42.4,42.4h125.67V7.26c-13.53,5.51-25.33,14.4-34.34,25.62Z"/>
      </g>
    </g>
  </g>
</svg>