<?xml version="1.0" encoding="UTF-8"?>
<svg id="_レイヤー_2" data-name="レイヤー 2" xmlns="http://www.w3.org/2000/svg" viewBox="0 0 305.56 256.15">
  <defs>
    <style>
      .cls-1 {
        fill: #ebebeb;
      }

      .cls-1, .cls-2, .cls-3, .cls-4 {
        stroke: #ccc;
        stroke-miterlimit: 10;
        stroke-width: 2px;
      }

      .cls-2 {
        fill: #fff;
      }

      .cls-3 {
        fill: #78d9ff;
      }

      .cls-5 {
        opacity: .2;
      }
    </style>
  </defs>
  <g id="_瀧_1" data-name="瀧 1">
    <g>
      <g class="cls-5">
        <path class="cls-4" d="m260.61,84.9c-2.09-38.71-34.14-69.45-73.37-69.45-9.8,0-19.13,1.94-27.67,5.42-11.67,4.75-21.85,12.41-29.63,22.08-5.94-2.22-12.36-3.44-19.07-3.44-30.1,0-54.51,24.4-54.51,54.51,0,2.18.14,4.32.39,6.43-1.83-.28-3.69-.43-5.6-.43-20.2,0-36.58,16.38-36.58,36.58s16.38,36.58,36.58,36.58h209.26c24.38,0,44.14-19.76,44.14-44.14s-19.66-44.03-43.95-44.14Z"/>
        <path class="cls-4" d="m92.02,188.21c-2.13-.76-4.48.35-5.24,2.48l-21.06,58.98c-.76,2.13.35,4.48,2.48,5.24.46.16.92.24,1.38.24,1.68,0,3.26-1.05,3.86-2.72l21.06-58.98c.76-2.13-.35-4.48-2.48-5.24Z"/>
        <path class="cls-4" d="m138.54,188.21c-2.13-.76-4.48.35-5.24,2.48l-21.06,58.98c-.76,2.13.35,4.48,2.48,5.24.46.16.92.24,1.38.24,1.68,0,3.26-1.05,3.86-2.72l21.06-58.98c.76-2.13-.35-4.48-2.48-5.24Z"/>
        <path class="cls-4" d="m185.06,188.21c-2.13-.76-4.48.35-5.24,2.48l-21.06,58.98c-.76,2.13.35,4.48,2.48,5.24.46.16.92.24,1.38.24,1.68,0,3.26-1.05,3.86-2.72l21.06-58.98c.76-2.13-.35-4.48-2.48-5.24Z"/>
        <path class="cls-4" d="m231.58,188.21c-2.13-.76-4.48.35-5.24,2.48l-21.06,58.98c-.76,2.13.35,4.48,2.48,5.24.46.16.92.24,1.38.24,1.68,0,3.26-1.05,3.86-2.72l21.06-58.98c.76-2.13-.35-4.48-2.48-5.24Z"/>
      </g>
      <g>
        <path class="cls-2" d="m116.36,28.5c-5.94-2.22-12.36-3.44-19.07-3.44-30.1,0-54.51,24.4-54.51,54.51,0,2.18.14,4.32.39,6.43-1.83-.28-3.69-.43-5.6-.43-20.2,0-36.58,16.38-36.58,36.58s16.38,36.58,36.58,36.58h108.41V6.42c-11.67,4.75-21.85,12.41-29.63,22.08Z"/>
        <path class="cls-1" d="m247.03,70.45C244.94,31.74,212.89,1,173.66,1c-9.8,0-19.13,1.94-27.67,5.42v152.31h100.85c24.38,0,44.14-19.76,44.14-44.14s-19.66-44.03-43.95-44.14Z"/>
        <path class="cls-3" d="m78.44,173.77c-2.13-.76-4.48.35-5.24,2.48l-21.06,58.98c-.76,2.13.35,4.48,2.48,5.24.46.16.92.24,1.38.24,1.68,0,3.26-1.05,3.86-2.72l21.06-58.98c.76-2.13-.35-4.48-2.48-5.24Z"/>
        <path class="cls-3" d="m124.96,173.77c-2.13-.76-4.48.35-5.24,2.48l-21.06,58.98c-.76,2.13.35,4.48,2.48,5.24.46.16.92.24,1.38.24,1.68,0,3.26-1.05,3.86-2.72l21.06-58.98c.76-2.13-.35-4.48-2.48-5.24Z"/>
        <path class="cls-3" d="m171.48,173.77c-2.13-.76-4.48.35-5.24,2.48l-21.06,58.98c-.76,2.13.35,4.48,2.48,5.24.46.16.92.24,1.38.24,1.68,0,3.26-1.05,3.86-2.72l21.06-58.98c.76-2.13-.35-4.48-2.48-5.24Z"/>
        <path class="cls-3" d="m218,173.77c-2.13-.76-4.48.35-5.24,2.48l-21.06,58.98c-.76,2.13.35,4.48,2.48,5.24.46.16.92.24,1.38.24,1.68,0,3.26-1.05,3.86-2.72l21.06-58.98c.76-2.13-.35-4.48-2.48-5.24Z"/>
      </g>
    </g>
  </g>
</svg>