<?xml version="1.0" encoding="UTF-8"?>
<svg id="_レイヤー_2" data-name="レイヤー 2" xmlns="http://www.w3.org/2000/svg" viewBox="0 0 302.86 254.28">
  <defs>
    <style>
      .cls-1 {
        fill: #ebebeb;
      }

      .cls-1, .cls-2, .cls-3, .cls-4 {
        stroke: #ccc;
        stroke-miterlimit: 10;
        stroke-width: 2px;
      }

      .cls-2 {
        fill: #fff;
      }

      .cls-3 {
        fill: #78d9ff;
      }

      .cls-5 {
        opacity: .2;
      }
    </style>
  </defs>
  <g id="_瀧_1" data-name="瀧 1">
    <g>
      <g class="cls-5">
        <path class="cls-4" d="m258.33,84.62c-2.07-38.34-33.81-68.79-72.66-68.79-9.7,0-18.95,1.92-27.41,5.37-11.56,4.71-21.64,12.29-29.34,21.87-5.88-2.2-12.24-3.4-18.89-3.4-29.82,0-53.99,24.17-53.99,53.99,0,2.16.14,4.28.39,6.37-1.81-.28-3.66-.42-5.54-.42-20.01,0-36.23,16.22-36.23,36.23s16.22,36.23,36.23,36.23h207.25c24.15,0,43.72-19.57,43.72-43.72s-19.47-43.61-43.53-43.72Z"/>
        <path class="cls-4" d="m84.2,192.31c-2.13-.76-4.48.35-5.24,2.48l-6.25,17.49c-.76,2.13.35,4.48,2.48,5.24.46.16.92.24,1.38.24,1.68,0,3.26-1.05,3.86-2.72l6.25-17.49c.76-2.13-.35-4.48-2.48-5.24Z"/>
        <path class="cls-4" d="m125.32,192.31c-2.13-.76-4.48.35-5.24,2.48l-6.25,17.49c-.76,2.13.35,4.48,2.48,5.24.46.16.92.24,1.38.24,1.68,0,3.26-1.05,3.86-2.72l6.25-17.49c.76-2.13-.35-4.48-2.48-5.24Z"/>
        <path class="cls-4" d="m95.4,227.83c-2.13-.76-4.48.35-5.24,2.48l-6.25,17.49c-.76,2.13.35,4.48,2.48,5.24.46.16.92.24,1.38.24,1.68,0,3.26-1.05,3.86-2.72l6.25-17.49c.76-2.13-.35-4.48-2.48-5.24Z"/>
        <path class="cls-4" d="m136.72,227.83c-2.13-.76-4.48.35-5.24,2.48l-6.25,17.49c-.76,2.13.35,4.48,2.48,5.24.46.16.92.24,1.38.24,1.68,0,3.26-1.05,3.86-2.72l6.25-17.49c.76-2.13-.35-4.48-2.48-5.24Z"/>
        <path class="cls-4" d="m173.2,227.22c-2.13-.76-4.48.35-5.24,2.48l-6.25,17.49c-.76,2.13.35,4.48,2.48,5.24.46.16.92.24,1.38.24,1.68,0,3.26-1.05,3.86-2.72l6.25-17.49c.76-2.13-.35-4.48-2.48-5.24Z"/>
        <path class="cls-4" d="m214.52,227.22c-2.13-.76-4.48.35-5.24,2.48l-6.25,17.49c-.76,2.13.35,4.48,2.48,5.24.46.16.92.24,1.38.24,1.68,0,3.26-1.05,3.86-2.72l6.25-17.49c.76-2.13-.35-4.48-2.48-5.24Z"/>
        <path class="cls-4" d="m161.59,191.7c-1.14-.41-2.34-.27-3.33.27-.85.46-1.56,1.22-1.91,2.21l-6.25,17.49c-.76,2.13.35,4.48,2.48,5.24.46.16.92.24,1.38.24,1.68,0,3.26-1.05,3.86-2.72l6.25-17.49c.76-2.13-.35-4.48-2.48-5.24Z"/>
        <path class="cls-4" d="m202.7,191.7c-2.13-.76-4.48.35-5.24,2.48l-6.25,17.49c-.76,2.13.35,4.48,2.48,5.24.46.16.92.24,1.38.24,1.68,0,3.26-1.05,3.86-2.72l6.25-17.49c.76-2.13-.35-4.48-2.48-5.24Z"/>
        <path class="cls-4" d="m243.82,191.7c-2.13-.76-4.48.35-5.24,2.48l-6.25,17.49c-.76,2.13.35,4.48,2.48,5.24.46.16.92.24,1.38.24,1.68,0,3.26-1.05,3.86-2.72l6.25-17.49c.76-2.13-.35-4.48-2.48-5.24Z"/>
      </g>
      <g>
        <path class="cls-2" d="m115.26,28.24c-5.88-2.2-12.24-3.4-18.89-3.4-29.82,0-53.99,24.17-53.99,53.99,0,2.16.14,4.28.39,6.37-1.81-.28-3.66-.42-5.54-.42-20.01,0-36.23,16.22-36.23,36.23s16.22,36.23,36.23,36.23h107.37V6.37c-11.56,4.71-21.64,12.29-29.34,21.87Z"/>
        <path class="cls-1" d="m244.67,69.79C242.6,31.45,210.86,1,172.01,1c-9.7,0-18.95,1.92-27.41,5.37v150.86h99.88c24.15,0,43.72-19.57,43.72-43.72s-19.47-43.61-43.53-43.72Z"/>
        <path class="cls-3" d="m70.55,177.48c-2.13-.76-4.48.35-5.24,2.48l-6.25,17.49c-.76,2.13.35,4.48,2.48,5.24.46.16.92.24,1.38.24,1.68,0,3.26-1.05,3.86-2.72l6.25-17.49c.76-2.13-.35-4.48-2.48-5.24Z"/>
        <path class="cls-3" d="m111.66,177.48c-2.13-.76-4.48.35-5.24,2.48l-6.25,17.49c-.76,2.13.35,4.48,2.48,5.24.46.16.92.24,1.38.24,1.68,0,3.26-1.05,3.86-2.72l6.25-17.49c.76-2.13-.35-4.48-2.48-5.24Z"/>
        <path class="cls-3" d="m81.74,213c-2.13-.76-4.48.35-5.24,2.48l-6.25,17.49c-.76,2.13.35,4.48,2.48,5.24.46.16.92.24,1.38.24,1.68,0,3.26-1.05,3.86-2.72l6.25-17.49c.76-2.13-.35-4.48-2.48-5.24Z"/>
        <path class="cls-3" d="m123.07,213c-2.13-.76-4.48.35-5.24,2.48l-6.25,17.49c-.76,2.13.35,4.48,2.48,5.24.46.16.92.24,1.38.24,1.68,0,3.26-1.05,3.86-2.72l6.25-17.49c.76-2.13-.35-4.48-2.48-5.24Z"/>
        <path class="cls-3" d="m159.54,212.38c-2.13-.76-4.48.35-5.24,2.48l-6.25,17.49c-.76,2.13.35,4.48,2.48,5.24.46.16.92.24,1.38.24,1.68,0,3.26-1.05,3.86-2.72l6.25-17.49c.76-2.13-.35-4.48-2.48-5.24Z"/>
        <path class="cls-3" d="m200.87,212.38c-2.13-.76-4.48.35-5.24,2.48l-6.25,17.49c-.76,2.13.35,4.48,2.48,5.24.46.16.92.24,1.38.24,1.68,0,3.26-1.05,3.86-2.72l6.25-17.49c.76-2.13-.35-4.48-2.48-5.24Z"/>
        <path class="cls-3" d="m142.69,179.34l-6.25,17.49c-.76,2.13.35,4.48,2.48,5.24.46.16.92.24,1.38.24,1.68,0,3.26-1.05,3.86-2.72l6.25-17.49c.76-2.13-.35-4.48-2.48-5.24-1.14-.41-2.34-.27-3.33.27v5.05-5.05c-.85.46-1.56,1.22-1.91,2.21Z"/>
        <path class="cls-3" d="m189.05,176.86c-2.13-.76-4.48.35-5.24,2.48l-6.25,17.49c-.76,2.13.35,4.48,2.48,5.24.46.16.92.24,1.38.24,1.68,0,3.26-1.05,3.86-2.72l6.25-17.49c.76-2.13-.35-4.48-2.48-5.24Z"/>
        <path class="cls-3" d="m230.17,176.86c-2.13-.76-4.48.35-5.24,2.48l-6.25,17.49c-.76,2.13.35,4.48,2.48,5.24.46.16.92.24,1.38.24,1.68,0,3.26-1.05,3.86-2.72l6.25-17.49c.76-2.13-.35-4.48-2.48-5.24Z"/>
      </g>
    </g>
  </g>
</svg>