<?xml version="1.0" encoding="UTF-8"?>
<svg id="_レイヤー_2" data-name="レイヤー 2" xmlns="http://www.w3.org/2000/svg" viewBox="0 0 328.99 259.45">
  <defs>
    <style>
      .cls-1 {
        fill: #ebebeb;
      }

      .cls-1, .cls-2, .cls-3, .cls-4, .cls-5, .cls-6 {
        stroke: #ccc;
        stroke-miterlimit: 10;
        stroke-width: 2px;
      }

      .cls-2 {
        fill: #fff;
      }

      .cls-3 {
        fill: #ebbf02;
      }

      .cls-4 {
        fill: #fdcd02;
      }

      .cls-5 {
        fill: none;
      }

      .cls-6 {
        opacity: .2;
      }
    </style>
  </defs>
  <g id="_瀧_1" data-name="瀧 1">
    <g>
      <path class="cls-6" d="m279.93,91.92c-2.29-42.32-37.33-75.94-80.22-75.94-9.55,0-18.7,1.67-27.19,4.73-14.05,5.06-26.28,13.92-35.46,25.35-6.49-2.42-13.51-3.76-20.85-3.76-32.92,0-59.6,26.69-59.6,59.6,0,2.38.16,4.72.43,7.03-2-.31-4.04-.47-6.12-.47-22.09,0-40,17.91-40,40s17.91,40,40,40h88.06c-1.12,2.98-2.2,5.99-3.19,9.03-1.25,3.87-2.41,7.79-3.41,11.78-.99,4-1.88,8.05-2.41,12.28,3.06-2.97,5.75-6.12,8.35-9.32,2.58-3.21,5.02-6.49,7.35-9.82,3.17-4.55,6.13-9.21,8.94-13.95h17.92v13.32l19.35.7c2.75.1,5.5.17,8.25.21,2.26.03,4.52.05,6.77.05-2.17,5.63-4.22,11.32-6.1,17.1-1.93,5.94-3.69,11.95-5.23,18.08-1.52,6.14-2.89,12.35-3.7,18.85,4.69-4.56,8.82-9.4,12.81-14.31,3.96-4.92,7.7-9.96,11.27-15.07,7.13-10.24,13.61-20.8,19.59-31.62l4.03-7.3h40.15c26.66,0,48.27-21.61,48.27-48.27s-21.5-48.15-48.06-48.26Z"/>
      <g>
        <polygon class="cls-5" points="162.6 173.47 162.6 186.79 169.45 173.47 162.6 173.47"/>
        <path class="cls-1" d="m270.02,76.94C267.73,34.62,232.69,1,189.8,1c-9.55,0-18.7,1.67-27.19,4.73v167.74h6.85l1.61-3.12c5.92-11.52,12.35-22.8,19.53-33.72,3.58-5.47,7.35-10.85,11.36-16.11,4.04-5.25,8.21-10.44,13.01-15.34-.71,6.82-2.03,13.34-3.5,19.81-1.49,6.45-3.23,12.78-5.15,19.03-1.98,6.48-4.17,12.87-6.52,19.18,2.3.01,4.61.04,6.91.1,2.75.07,5.5.14,8.25.27l19.66.92-4.97,9h40.15c26.66,0,48.27-21.61,48.27-48.27s-21.5-48.15-48.06-48.26Z"/>
        <path class="cls-2" d="m127.14,31.07c-6.49-2.42-13.51-3.76-20.85-3.76-32.92,0-59.6,26.68-59.6,59.6,0,2.38.16,4.72.43,7.03-2-.31-4.04-.47-6.12-.47-22.09,0-40,17.91-40,40s17.91,40,40,40h88.06c.26-.7.51-1.41.78-2.11-1.47,0-2.94,0-4.41-.03-1.79-.03-3.58-.07-5.38-.14l-12.61-.45,5.51-10.72c3.86-7.5,8.05-14.85,12.73-21.97,2.33-3.56,4.79-7.07,7.4-10.5,2.63-3.42,5.35-6.8,8.48-10-.46,4.44-1.33,8.69-2.28,12.91-.97,4.2-2.1,8.33-3.35,12.4-1.29,4.22-2.72,8.38-4.25,12.5,1.5,0,3,.03,4.5.06,1.79.05,3.58.09,5.38.18l12.81.6-5.86,10.62c-1.24,2.24-2.52,4.45-3.83,6.66h17.92V5.73c-14.05,5.06-26.28,13.92-35.46,25.35Z"/>
        <path class="cls-3" d="m214.96,163.55c-2.75-.13-5.5-.2-8.25-.27-2.3-.05-4.61-.08-6.91-.1,2.35-6.31,4.54-12.69,6.52-19.18,1.92-6.25,3.65-12.58,5.15-19.03,1.46-6.46,2.79-12.99,3.5-19.81-4.8,4.9-8.97,10.09-13.01,15.34-4.01,5.27-7.77,10.65-11.36,16.11-7.18,10.93-13.61,22.21-19.53,33.72l-1.61,3.12-6.85,13.32,19.35.7c2.75.1,5.5.17,8.25.21,2.26.03,4.52.05,6.77.05-2.17,5.63-4.22,11.32-6.1,17.1-1.93,5.94-3.69,11.95-5.23,18.08-1.52,6.14-2.89,12.35-3.7,18.85,4.69-4.56,8.82-9.4,12.81-14.31,3.96-4.92,7.7-9.96,11.27-15.07,7.13-10.24,13.61-20.8,19.59-31.62l4.03-7.3,4.97-9-19.66-.92Z"/>
        <path class="cls-4" d="m125.87,182.5c-1.25,3.87-2.41,7.79-3.41,11.78-.99,4-1.88,8.05-2.41,12.28,3.06-2.97,5.75-6.12,8.35-9.32,2.58-3.21,5.02-6.49,7.35-9.82,3.17-4.55,6.13-9.21,8.94-13.95h-15.62c-1.12,2.98-2.2,5.99-3.19,9.03Z"/>
        <path class="cls-4" d="m154.37,156.2l-12.81-.6c-1.79-.08-3.58-.13-5.38-.18-1.5-.03-3-.05-4.5-.06,1.53-4.11,2.96-8.27,4.25-12.5,1.25-4.07,2.38-8.2,3.35-12.4.95-4.21,1.82-8.46,2.28-12.91-3.13,3.19-5.84,6.57-8.48,10-2.61,3.43-5.07,6.94-7.4,10.5-4.68,7.12-8.87,14.47-12.73,21.97l-5.51,10.72,12.61.45c1.79.06,3.58.11,5.38.14,1.47.02,2.94.03,4.41.03-.27.7-.52,1.41-.78,2.11h15.62c1.31-2.2,2.59-4.42,3.83-6.66l5.86-10.62Z"/>
      </g>
    </g>
  </g>
</svg>