<?xml version="1.0" encoding="UTF-8"?>
<svg id="_レイヤー_2" data-name="レイヤー 2" xmlns="http://www.w3.org/2000/svg" viewBox="0 0 270.05 274.07">
  <defs>
    <style>
      .cls-1 {
        fill: #ebebeb;
      }

      .cls-1, .cls-2, .cls-3, .cls-4 {
        stroke: #ccc;
        stroke-miterlimit: 10;
        stroke-width: 2px;
      }

      .cls-2 {
        fill: #fff;
      }

      .cls-3 {
        fill: none;
      }

      .cls-4 {
        opacity: .2;
      }
    </style>
  </defs>
  <g id="_瀧_1" data-name="瀧 1">
    <g>
      <polygon class="cls-3" points="105.62 119.1 105.62 144.43 127.55 157.1 127.55 157.1 127.55 106.44 127.55 106.44 105.62 119.1"/>
      <polygon class="cls-3" points="149.49 144.43 149.49 119.1 127.55 106.44 127.55 157.1 149.49 144.43"/>
      <path class="cls-4" d="m259.6,172.32l-38.45,5.93-40.32-23.28v-25.33l40.32-23.28,38.45,5.93c.42.07.84.1,1.26.1,3.98,0,7.47-2.9,8.09-6.95.69-4.48-2.38-8.66-6.85-9.35l-18.27-2.82,8.91-5.15c3.92-2.26,5.27-7.28,3-11.2-2.26-3.92-7.28-5.27-11.2-3l-8.91,5.15,6.7-17.23c1.64-4.22-.45-8.97-4.67-10.61-4.22-1.64-8.97.45-10.61,4.67l-14.09,36.26-40.32,23.28-21.94-12.66v-46.55l24.36-30.34c2.83-3.53,2.27-8.69-1.26-11.53-3.53-2.83-8.69-2.27-11.53,1.26l-11.57,14.41v-10.29c0-4.53-3.67-8.2-8.2-8.2,0,0,0,0,0,0-4.53,0-8.2,3.67-8.2,8.2v10.29l-11.57-14.41c-2.84-3.53-8-4.09-11.53-1.26-3.53,2.84-4.09,8-1.26,11.53l24.36,30.34v46.56l-21.93,12.66-40.32-23.28-14.09-36.26c-1.64-4.22-6.39-6.31-10.61-4.67-4.22,1.64-6.31,6.39-4.67,10.61l6.7,17.23-8.91-5.15c-3.92-2.26-8.94-.92-11.2,3-2.26,3.92-.92,8.94,3,11.2l8.91,5.15-18.27,2.82c-4.47.69-7.54,4.88-6.85,9.35.62,4.05,4.12,6.95,8.09,6.95.42,0,.84-.03,1.26-.1l38.45-5.93,40.32,23.28v25.33l-40.32,23.28-38.45-5.93c-4.48-.69-8.66,2.38-9.35,6.85-.69,4.48,2.38,8.66,6.85,9.35l18.27,2.81-8.92,5.15c-3.92,2.26-5.26,7.28-3,11.2,1.52,2.63,4.27,4.1,7.11,4.1,1.39,0,2.8-.35,4.09-1.1l8.91-5.15-6.7,17.23c-1.64,4.22.45,8.97,4.67,10.61.98.38,1.98.56,2.97.56,3.28,0,6.38-1.99,7.64-5.23l14.09-36.26,40.32-23.28,21.93,12.66v46.56l-24.36,30.34c-2.84,3.53-2.27,8.69,1.26,11.53,3.53,2.83,8.69,2.27,11.53-1.26l11.57-14.41v10.29c0,4.53,3.67,8.2,8.2,8.2h0c4.53,0,8.2-3.67,8.2-8.2v-10.29l11.57,14.41c1.62,2.02,4,3.07,6.4,3.07,1.8,0,3.61-.59,5.13-1.81,3.53-2.83,4.09-7.99,1.26-11.53l-24.36-30.34v-46.56l21.94-12.66,40.32,23.28,14.09,36.26c1.26,3.24,4.36,5.23,7.64,5.23.99,0,1.99-.18,2.97-.56,4.22-1.64,6.31-6.39,4.67-10.61l-6.7-17.23,8.91,5.15c1.29.75,2.7,1.1,4.09,1.1,2.83,0,5.59-1.47,7.11-4.1,2.26-3.92.92-8.94-3-11.2l-8.91-5.15,18.27-2.82c4.47-.69,7.54-4.88,6.85-9.35-.69-4.48-4.88-7.54-9.35-6.85Zm-95.17-17.35l-21.93,12.66h0s-21.93-12.66-21.93-12.66v-25.33l21.93-12.66h0s21.93,12.66,21.93,12.66v25.33Z"/>
      <g>
        <path class="cls-1" d="m244.65,161.78l-38.45,5.93-40.32-23.28v-25.33l40.32-23.28,38.45,5.93c.42.07.84.1,1.26.1,3.98,0,7.47-2.9,8.09-6.95.69-4.48-2.38-8.66-6.85-9.35l-18.27-2.82,8.91-5.15c3.92-2.26,5.27-7.28,3-11.2-2.26-3.92-7.28-5.26-11.2-3l-8.91,5.15,6.7-17.23c1.64-4.22-.45-8.97-4.67-10.61-4.22-1.64-8.97.45-10.61,4.67l-14.09,36.26-40.32,23.28-21.94-12.66v-46.55l24.36-30.34c2.83-3.53,2.27-8.69-1.26-11.53-3.53-2.83-8.69-2.27-11.53,1.26l-11.57,14.41v-10.29c0-4.53-3.67-8.2-8.2-8.2v105.44l21.93,12.66v25.33l-21.93,12.66v105.44c4.53,0,8.2-3.67,8.2-8.2v-10.29l11.57,14.41c1.62,2.02,4,3.07,6.4,3.07,1.8,0,3.61-.59,5.13-1.81,3.53-2.83,4.09-7.99,1.26-11.53l-24.36-30.34v-46.56l21.94-12.66,40.32,23.28,14.09,36.26c1.26,3.24,4.36,5.23,7.64,5.23.99,0,1.99-.18,2.97-.56,4.22-1.64,6.31-6.39,4.67-10.61l-6.7-17.23,8.91,5.15c1.29.75,2.7,1.1,4.09,1.1,2.83,0,5.59-1.47,7.11-4.1,2.26-3.92.92-8.94-3-11.2l-8.91-5.15,18.27-2.82c4.48-.69,7.54-4.88,6.85-9.35-.69-4.48-4.88-7.54-9.35-6.85Z"/>
        <path class="cls-2" d="m127.55,157.1l-21.93-12.66v-25.33l21.93-12.66h0s0-105.44,0-105.44c0,0,0,0,0,0-4.53,0-8.2,3.67-8.2,8.2v10.29l-11.57-14.41c-2.84-3.53-8-4.09-11.53-1.26-3.53,2.84-4.09,8-1.26,11.53l24.36,30.34v46.56l-21.93,12.66-40.32-23.28-14.09-36.26c-1.64-4.22-6.39-6.31-10.61-4.67-4.22,1.64-6.31,6.39-4.67,10.61l6.69,17.23-8.91-5.15c-3.92-2.26-8.94-.92-11.2,3-2.26,3.92-.92,8.94,3,11.2l8.91,5.15-18.27,2.82c-4.47.69-7.54,4.88-6.85,9.35.62,4.05,4.12,6.95,8.09,6.95.42,0,.84-.03,1.26-.1l38.45-5.93,40.32,23.28v25.33l-40.32,23.28-38.45-5.93c-4.48-.69-8.66,2.38-9.35,6.85-.69,4.48,2.38,8.66,6.85,9.35l18.27,2.81-8.92,5.15c-3.92,2.26-5.27,7.28-3,11.2,1.52,2.63,4.27,4.1,7.11,4.1,1.39,0,2.8-.35,4.09-1.1l8.91-5.15-6.69,17.23c-1.64,4.22.45,8.97,4.67,10.61.98.38,1.98.56,2.97.56,3.28,0,6.38-1.99,7.64-5.23l14.09-36.26,40.32-23.28,21.93,12.66v46.56l-24.36,30.34c-2.84,3.53-2.27,8.69,1.26,11.53,3.53,2.83,8.69,2.27,11.53-1.26l11.57-14.41v10.29c0,4.53,3.67,8.2,8.2,8.2,0,0,0,0,0,0v-105.44h0Z"/>
      </g>
    </g>
  </g>
</svg>