<?xml version="1.0" encoding="UTF-8"?>
<svg id="_レイヤー_2" data-name="レイヤー 2" xmlns="http://www.w3.org/2000/svg" viewBox="0 0 323.95 194.23">
  <defs>
    <style>
      .cls-1 {
        fill: #fff;
      }

      .cls-1, .cls-2 {
        stroke: #ccc;
        stroke-miterlimit: 10;
        stroke-width: 2px;
      }

      .cls-3 {
        opacity: .2;
      }
    </style>
  </defs>
  <g id="_瀧_1" data-name="瀧 1">
    <g>
      <g class="cls-3">
        <path class="cls-2" d="m297.69,50.63c0-22.78-18.54-41.32-41.32-41.32-18.46,0-33.48,15.02-33.48,33.48v.64c0,3.62,2.94,6.56,6.56,6.56s6.56-2.94,6.56-6.56v-.64c0-11.23,9.14-20.36,20.36-20.36,15.55,0,28.2,12.65,28.2,28.2s-12.65,28.2-28.2,28.2H33.02c-3.62,0-6.56,2.94-6.56,6.56s2.94,6.56,6.56,6.56h223.36c22.78,0,41.32-18.54,41.32-41.32Z"/>
        <path class="cls-2" d="m186.92,137.99H51.58c-3.62,0-6.56,2.94-6.56,6.56s2.94,6.56,6.56,6.56h135.33c8,0,14.5,6.51,14.5,14.5s-6.51,14.5-14.5,14.5c-5.38,0-9.75-4.38-9.75-9.75v-.39c0-3.62-2.94-6.56-6.56-6.56s-6.56,2.94-6.56,6.56v.39c0,12.61,10.26,22.87,22.87,22.87,15.23,0,27.62-12.39,27.62-27.62s-12.39-27.62-27.62-27.62Z"/>
        <path class="cls-2" d="m203.62,57.32c0-3.62-2.94-6.56-6.56-6.56H21.95c-3.62,0-6.56,2.94-6.56,6.56s2.94,6.56,6.56,6.56h175.11c3.62,0,6.56-2.94,6.56-6.56Z"/>
        <path class="cls-2" d="m288.17,109.59H77.73c-3.62,0-6.56,2.94-6.56,6.56s2.94,6.56,6.56,6.56h210.44c11.94,0,21.66,9.72,21.66,21.66s-9.72,21.66-21.66,21.66c-3.62,0-6.56,2.94-6.56,6.56s2.94,6.56,6.56,6.56c19.18,0,34.78-15.6,34.78-34.78s-15.6-34.77-34.78-34.77Z"/>
      </g>
      <g>
        <path class="cls-1" d="m283.3,42.32c0-22.78-18.54-41.32-41.32-41.32-18.46,0-33.48,15.02-33.48,33.48v.64c0,3.62,2.94,6.56,6.56,6.56s6.56-2.94,6.56-6.56v-.64c0-11.23,9.14-20.36,20.36-20.36,15.55,0,28.2,12.65,28.2,28.2s-12.65,28.2-28.2,28.2H18.63c-3.62,0-6.56,2.94-6.56,6.56s2.94,6.56,6.56,6.56h223.35c22.78,0,41.32-18.54,41.32-41.32Z"/>
        <path class="cls-1" d="m172.53,129.68H37.2c-3.62,0-6.56,2.94-6.56,6.56s2.94,6.56,6.56,6.56h135.33c8,0,14.5,6.51,14.5,14.5s-6.51,14.5-14.5,14.5c-5.38,0-9.75-4.38-9.75-9.75v-.39c0-3.62-2.94-6.56-6.56-6.56s-6.56,2.94-6.56,6.56v.39c0,12.61,10.26,22.87,22.87,22.87,15.23,0,27.62-12.39,27.62-27.62s-12.39-27.62-27.62-27.62Z"/>
        <path class="cls-1" d="m189.23,49.01c0-3.62-2.94-6.56-6.56-6.56H7.56c-3.62,0-6.56,2.94-6.56,6.56s2.94,6.56,6.56,6.56h175.11c3.62,0,6.56-2.94,6.56-6.56Z"/>
        <path class="cls-1" d="m273.79,101.27H63.34c-3.62,0-6.56,2.94-6.56,6.56s2.94,6.56,6.56,6.56h210.44c11.94,0,21.66,9.72,21.66,21.66s-9.72,21.66-21.66,21.66c-3.62,0-6.56,2.94-6.56,6.56s2.94,6.56,6.56,6.56c19.18,0,34.78-15.6,34.78-34.77s-15.6-34.77-34.78-34.77Z"/>
      </g>
    </g>
  </g>
</svg>