<?xml version="1.0" encoding="UTF-8"?>
<svg id="_レイヤー_2" data-name="レイヤー 2" xmlns="http://www.w3.org/2000/svg" viewBox="0 0 149.81 272.66">
  <defs>
    <style>
      .cls-1 {
        fill: #bd293b;
      }

      .cls-1, .cls-2, .cls-3, .cls-4, .cls-5 {
        stroke: #ccc;
        stroke-miterlimit: 10;
        stroke-width: 2px;
      }

      .cls-2 {
        fill: #ebebeb;
      }

      .cls-3 {
        fill: #fff;
      }

      .cls-4 {
        fill: #eb3449;
      }

      .cls-6 {
        opacity: .2;
      }
    </style>
  </defs>
  <g id="_瀧_1" data-name="瀧 1">
    <g>
      <g class="cls-6">
        <path class="cls-5" d="m104.19,168.57V45.03c0-18.19-14.75-32.94-32.94-32.94s-32.94,14.75-32.94,32.94v123.54c-14.44,10.3-23.87,27.18-23.87,46.28,0,31.38,25.44,56.82,56.81,56.82s56.82-25.44,56.82-56.82c0-19.09-9.43-35.97-23.87-46.28Z"/>
        <path class="cls-5" d="m120.1,61.09h24.61c2.26,0,4.1-1.84,4.1-4.1s-1.83-4.1-4.1-4.1h-24.61c-2.26,0-4.1,1.84-4.1,4.1s1.83,4.1,4.1,4.1Z"/>
        <path class="cls-5" d="m144.71,100.88h-24.61c-2.26,0-4.1,1.84-4.1,4.1s1.83,4.1,4.1,4.1h24.61c2.26,0,4.1-1.84,4.1-4.1s-1.83-4.1-4.1-4.1Z"/>
        <path class="cls-5" d="m144.71,148.87h-24.61c-2.26,0-4.1,1.84-4.1,4.1s1.83,4.1,4.1,4.1h24.61c2.26,0,4.1-1.84,4.1-4.1s-1.83-4.1-4.1-4.1Z"/>
      </g>
      <g>
        <path class="cls-3" d="m57.81,243.29c-21.57,0-39.05-17.48-39.05-39.05,0-15.71,9.28-29.24,22.65-35.44V45.9c0-9.06,7.34-16.4,16.4-16.4V1h0c-18.19,0-32.94,14.75-32.94,32.94v123.54c-14.44,10.3-23.87,27.18-23.87,46.28,0,31.38,25.44,56.82,56.81,56.82h0v-17.28h0Z"/>
        <path class="cls-2" d="m90.76,157.48V33.94C90.76,15.75,76.01,1,57.81,1v28.5h0c9.06,0,16.4,7.34,16.4,16.4v122.91c13.37,6.2,22.65,19.73,22.65,35.44,0,21.57-17.48,39.05-39.05,39.05v17.28c31.38,0,56.82-25.44,56.82-56.82,0-19.09-9.43-35.97-23.87-46.28Z"/>
        <g>
          <path class="cls-2" d="m106.67,50h24.61c2.26,0,4.1-1.84,4.1-4.1s-1.84-4.1-4.1-4.1h-24.61c-2.26,0-4.1,1.84-4.1,4.1s1.84,4.1,4.1,4.1Z"/>
          <path class="cls-2" d="m131.28,89.79h-24.61c-2.26,0-4.1,1.84-4.1,4.1s1.84,4.1,4.1,4.1h24.61c2.26,0,4.1-1.84,4.1-4.1s-1.84-4.1-4.1-4.1Z"/>
          <path class="cls-2" d="m131.28,137.78h-24.61c-2.26,0-4.1,1.84-4.1,4.1s1.84,4.1,4.1,4.1h24.61c2.26,0,4.1-1.84,4.1-4.1s-1.84-4.1-4.1-4.1Z"/>
        </g>
        <path class="cls-4" d="m41.42,45.9v122.91c-13.37,6.2-22.65,19.73-22.65,35.44,0,21.57,17.48,39.05,39.05,39.05h0V29.5c-9.06,0-16.4,7.34-16.4,16.4Z"/>
        <path class="cls-1" d="m96.86,204.24c0-15.71-9.28-29.24-22.65-35.44V45.9c0-9.06-7.34-16.4-16.4-16.4h0v213.79c21.57,0,39.05-17.48,39.05-39.05Z"/>
      </g>
    </g>
  </g>
</svg>